<svg xmlns="http://www.w3.org/2000/svg" version="1.1" width="228" height="197" style=""><rect id="backgroundrect" width="100%" height="100%" x="0" y="0" fill="none" stroke="none"/>












<g class="currentLayer" style=""><title>Layer 1</title><g stroke-width="2.00" fill="none" stroke-linecap="butt" id="svg_1" class="" stroke="#484848" stroke-opacity="1">
<path stroke="#484848" vector-effect="non-scaling-stroke" d="   M 29.23 99.58   C 36.54 93.87 41.60 86.36 41.52 76.75   Q 41.40 61.63 41.43 46.50   Q 41.43 43.42 44.01 41.77   C 45.62 40.75 47.77 40.92 49.26 40.32   C 53.18 38.73 52.60 32.20 48.26 31.53   C 41.93 30.56 35.37 35.40 33.14 41.05   Q 31.99 43.96 31.97 51.57   Q 31.95 64.48 31.98 77.40   C 32.01 86.18 25.22 91.65 18.19 95.56   C 13.50 98.16 14.40 102.03 18.67 104.53   C 24.76 108.10 32.03 113.59 32.00 121.50   Q 31.95 137.50 32.17 153.50   C 32.28 161.74 39.21 168.42 47.48 168.03   C 51.91 167.82 53.52 162.80 50.31 160.19   C 48.28 158.53 45.44 159.26 43.35 157.43   Q 41.42 155.74 41.42 153.25   Q 41.40 140.47 41.42 127.68   Q 41.44 118.55 40.33 114.91   C 38.52 108.95 34.10 104.18 29.22 100.31   Q 28.76 99.94 29.23 99.58" id="svg_2" stroke-opacity="1"/>
<path stroke="#484848" vector-effect="non-scaling-stroke" d="   M 93.00 41.64   C 94.76 42.69 95.75 45.09 95.75 46.76   Q 95.74 59.06 95.75 70.93   Q 95.75 71.40 96.22 71.40   L 104.74 71.37   A 0.43 0.43 0.0 0 0 105.17 70.94   Q 105.12 59.67 104.99 47.75   Q 104.85 34.30 91.99 31.53   C 85.92 30.22 82.38 37.57 87.73 40.20   C 89.36 41.00 91.42 40.71 93.00 41.64" id="svg_3" stroke-opacity="1"/>
<path stroke="#484848" vector-effect="non-scaling-stroke" d="   M 137.75 104.76   L 142.55 105.04   Q 143.07 105.07 143.34 105.51   L 146.14 109.98   Q 146.75 110.97 147.92 110.97   L 150.77 110.97   A 0.76 0.76 0.0 0 0 151.42 109.81   L 148.36 104.90   Q 148.09 104.46 148.50 104.15   C 153.18 100.68 152.13 92.16 145.31 91.66   Q 139.02 91.19 132.72 92.05   Q 132.30 92.11 132.30 92.53   L 132.30 110.51   Q 132.30 110.97 132.76 110.97   L 136.74 110.98   Q 137.21 110.98 137.21 110.51   L 137.23 105.25   Q 137.23 104.74 137.75 104.76" id="svg_4" stroke-opacity="1"/>
<path stroke="#484848" vector-effect="non-scaling-stroke" d="   M 184.13 106.85   Q 180.54 107.39 177.00 106.52   C 173.90 105.75 174.06 102.52 174.22 99.98   C 174.59 94.02 184.99 95.96 188.50 96.77   Q 188.89 96.86 188.88 96.45   L 188.76 92.79   Q 188.75 92.38 188.35 92.29   C 180.97 90.69 169.18 90.18 169.18 100.55   Q 169.18 104.03 169.83 105.93   C 172.31 113.18 183.63 111.67 189.09 110.62   Q 189.42 110.55 189.43 110.21   L 189.43 101.74   Q 189.43 101.56 189.24 101.56   L 184.77 101.56   Q 184.59 101.56 184.59 101.73   L 184.60 106.32   Q 184.60 106.78 184.13 106.85" id="svg_5" stroke-opacity="1"/>
<path stroke="#484848" vector-effect="non-scaling-stroke" d="   M 60.53 106.47   A 0.32 0.32 0.0 0 1 60.21 106.15   L 60.16 92.29   A 0.32 0.32 0.0 0 0 59.84 91.97   L 55.62 91.96   A 0.32 0.32 0.0 0 0 55.30 92.28   L 55.30 110.65   A 0.32 0.32 0.0 0 0 55.62 110.97   L 72.80 110.97   A 0.32 0.32 0.0 0 0 73.12 110.65   L 73.16 106.79   A 0.32 0.32 0.0 0 0 72.84 106.47   L 60.53 106.47" id="svg_6" stroke-opacity="1"/>
<path stroke="#484848" vector-effect="non-scaling-stroke" d="   M 85.37 107.92   A 0.77 0.77 0.0 0 1 86.07 107.47   L 94.74 107.46   A 0.77 0.77 0.0 0 1 95.44 107.91   L 96.65 110.53   A 0.77 0.77 0.0 0 0 97.35 110.97   L 100.53 110.98   A 0.77 0.77 0.0 0 0 101.23 109.88   L 93.08 92.41   A 0.77 0.77 0.0 0 0 92.38 91.97   L 88.49 91.96   A 0.77 0.77 0.0 0 0 87.79 92.41   L 79.64 109.87   A 0.77 0.77 0.0 0 0 80.34 110.97   L 83.50 110.96   A 0.77 0.77 0.0 0 0 84.20 110.51   L 85.37 107.92" id="svg_7" stroke-opacity="1"/>
<path stroke="#484848" vector-effect="non-scaling-stroke" d="   M 114.96 105.98   A 0.31 0.31 0.0 0 1 114.40 105.98   L 108.33 92.16   A 0.31 0.31 0.0 0 0 108.05 91.98   L 103.87 91.95   A 0.31 0.31 0.0 0 0 103.59 92.39   L 112.18 110.79   A 0.31 0.31 0.0 0 0 112.46 110.97   L 116.89 110.98   A 0.31 0.31 0.0 0 0 117.17 110.80   L 125.75 92.40   A 0.31 0.31 0.0 0 0 125.47 91.96   L 121.30 91.96   A 0.31 0.31 0.0 0 0 121.02 92.15   L 114.96 105.98" id="svg_8" stroke-opacity="1"/>
<path stroke="#484848" vector-effect="non-scaling-stroke" d="   M 104.87 155.62   Q 105.54 146.46 105.08 128.30   A 0.30 0.29 89.0 0 0 104.79 128.01   L 96.01 128.01   Q 95.76 128.01 95.76 128.26   Q 95.75 139.78 95.74 151.75   Q 95.74 155.89 93.13 157.91   C 91.15 159.44 88.46 158.38 86.51 160.37   C 84.72 162.20 84.79 165.17 86.64 166.98   C 90.03 170.32 97.78 166.63 100.71 163.71   Q 104.56 159.88 104.87 155.62" id="svg_9" stroke-opacity="1"/>
<path stroke="#484848" vector-effect="non-scaling-stroke" d="   M 137.22 96.57   L 137.22 99.81   A 0.60 0.60 0.0 0 0 137.82 100.41   L 144.20 100.42   A 2.10 1.68 0.1 0 0 146.30 98.75   L 146.30 97.67   A 2.10 1.68 0.1 0 0 144.20 95.98   L 137.82 95.97   A 0.60 0.60 0.0 0 0 137.22 96.57" id="svg_10" stroke-opacity="1"/>
<path stroke="#484848" vector-effect="non-scaling-stroke" d="   M 87.69 103.00   A 0.34 0.34 0.0 0 0 88.00 103.48   L 92.87 103.47   A 0.34 0.34 0.0 0 0 93.18 102.99   L 90.73 97.50   A 0.34 0.34 0.0 0 0 90.11 97.51   L 87.69 103.00" id="svg_11" stroke-opacity="1"/>
</g><path fill="#000000" d="   M 29.22 100.31   C 34.10 104.18 38.52 108.95 40.33 114.91   Q 41.44 118.55 41.42 127.68   Q 41.40 140.47 41.42 153.25   Q 41.42 155.74 43.35 157.43   C 45.44 159.26 48.28 158.53 50.31 160.19   C 53.52 162.80 51.91 167.82 47.48 168.03   C 39.21 168.42 32.28 161.74 32.17 153.50   Q 31.95 137.50 32.00 121.50   C 32.03 113.59 24.76 108.10 18.67 104.53   C 14.40 102.03 13.50 98.16 18.19 95.56   C 25.22 91.65 32.01 86.18 31.98 77.40   Q 31.95 64.48 31.97 51.57   Q 31.99 43.96 33.14 41.05   C 35.37 35.40 41.93 30.56 48.26 31.53   C 52.60 32.20 53.18 38.73 49.26 40.32   C 47.77 40.92 45.62 40.75 44.01 41.77   Q 41.43 43.42 41.43 46.50   Q 41.40 61.63 41.52 76.75   C 41.60 86.36 36.54 93.87 29.23 99.58   Q 28.76 99.94 29.22 100.31   Z" id="svg_13" class="" stroke="#000000" stroke-opacity="1" fill-opacity="1"/><path fill="#000000" d="   M 95.75 46.76   C 95.75 45.09 94.76 42.69 93.00 41.64   C 91.42 40.71 89.36 41.00 87.73 40.20   C 82.38 37.57 85.92 30.22 91.99 31.53   Q 104.85 34.30 104.99 47.75   Q 105.12 59.67 105.17 70.94   A 0.43 0.43 0.0 0 1 104.74 71.37   L 96.22 71.40   Q 95.75 71.40 95.75 70.93   Q 95.74 59.06 95.75 46.76   Z" id="svg_14" class="" stroke="#000000" stroke-opacity="1" fill-opacity="1"/><path fill="#000000" d="   M 137.23 105.25   L 137.21 110.51   Q 137.21 110.98 136.74 110.98   L 132.76 110.97   Q 132.30 110.97 132.30 110.51   L 132.30 92.53   Q 132.30 92.11 132.72 92.05   Q 139.02 91.19 145.31 91.66   C 152.13 92.16 153.18 100.68 148.50 104.15   Q 148.09 104.46 148.36 104.90   L 151.42 109.81   A 0.76 0.76 0.0 0 1 150.77 110.97   L 147.92 110.97   Q 146.75 110.97 146.14 109.98   L 143.34 105.51   Q 143.07 105.07 142.55 105.04   L 137.75 104.76   Q 137.23 104.74 137.23 105.25   Z   M 137.22 96.57   L 137.22 99.81   A 0.60 0.60 0.0 0 0 137.82 100.41   L 144.20 100.42   A 2.10 1.68 0.1 0 0 146.30 98.75   L 146.30 97.67   A 2.10 1.68 0.1 0 0 144.20 95.98   L 137.82 95.97   A 0.60 0.60 0.0 0 0 137.22 96.57   Z" id="svg_15" class="" stroke="#000000" stroke-opacity="1" fill-opacity="1"/><path fill="#000000" d="   M 184.60 106.32   L 184.59 101.73   Q 184.59 101.56 184.77 101.56   L 189.24 101.56   Q 189.43 101.56 189.43 101.74   L 189.43 110.21   Q 189.42 110.55 189.09 110.62   C 183.63 111.67 172.31 113.18 169.83 105.93   Q 169.18 104.03 169.18 100.55   C 169.18 90.18 180.97 90.69 188.35 92.29   Q 188.75 92.38 188.76 92.79   L 188.88 96.45   Q 188.89 96.86 188.50 96.77   C 184.99 95.96 174.59 94.02 174.22 99.98   C 174.06 102.52 173.90 105.75 177.00 106.52   Q 180.54 107.39 184.13 106.85   Q 184.60 106.78 184.60 106.32   Z" id="svg_16" class="" stroke="#000000" stroke-opacity="1" fill-opacity="1"/><path fill="#000000" d="   M 60.53 106.47   L 72.84 106.47   A 0.32 0.32 0.0 0 1 73.16 106.79   L 73.12 110.65   A 0.32 0.32 0.0 0 1 72.80 110.97   L 55.62 110.97   A 0.32 0.32 0.0 0 1 55.30 110.65   L 55.30 92.28   A 0.32 0.32 0.0 0 1 55.62 91.96   L 59.84 91.97   A 0.32 0.32 0.0 0 1 60.16 92.29   L 60.21 106.15   A 0.32 0.32 0.0 0 0 60.53 106.47   Z" id="svg_17" class="" stroke="#000000" stroke-opacity="1" fill-opacity="1"/><path fill="#000000" d="   M 85.37 107.92   L 84.20 110.51   A 0.77 0.77 0.0 0 1 83.50 110.96   L 80.34 110.97   A 0.77 0.77 0.0 0 1 79.64 109.87   L 87.79 92.41   A 0.77 0.77 0.0 0 1 88.49 91.96   L 92.38 91.97   A 0.77 0.77 0.0 0 1 93.08 92.41   L 101.23 109.88   A 0.77 0.77 0.0 0 1 100.53 110.98   L 97.35 110.97   A 0.77 0.77 0.0 0 1 96.65 110.53   L 95.44 107.91   A 0.77 0.77 0.0 0 0 94.74 107.46   L 86.07 107.47   A 0.77 0.77 0.0 0 0 85.37 107.92   Z   M 87.69 103.00   A 0.34 0.34 0.0 0 0 88.00 103.48   L 92.87 103.47   A 0.34 0.34 0.0 0 0 93.18 102.99   L 90.73 97.50   A 0.34 0.34 0.0 0 0 90.11 97.51   L 87.69 103.00   Z" id="svg_18" class="" stroke="#000000" stroke-opacity="1" fill-opacity="1"/><path fill="#000000" d="   M 114.96 105.98   L 121.02 92.15   A 0.31 0.31 0.0 0 1 121.30 91.96   L 125.47 91.96   A 0.31 0.31 0.0 0 1 125.75 92.40   L 117.17 110.80   A 0.31 0.31 0.0 0 1 116.89 110.98   L 112.46 110.97   A 0.31 0.31 0.0 0 1 112.18 110.79   L 103.59 92.39   A 0.31 0.31 0.0 0 1 103.87 91.95   L 108.05 91.98   A 0.31 0.31 0.0 0 1 108.33 92.16   L 114.40 105.98   A 0.31 0.31 0.0 0 0 114.96 105.98   Z" id="svg_19" class="" stroke="#000000" stroke-opacity="1" fill-opacity="1"/><path fill="#000000" d="   M 104.87 155.62   Q 104.56 159.88 100.71 163.71   C 97.78 166.63 90.03 170.32 86.64 166.98   C 84.79 165.17 84.72 162.20 86.51 160.37   C 88.46 158.38 91.15 159.44 93.13 157.91   Q 95.74 155.89 95.74 151.75   Q 95.75 139.78 95.76 128.26   Q 95.76 128.01 96.01 128.01   L 104.79 128.01   A 0.30 0.29 89.0 0 1 105.08 128.30   Q 105.54 146.46 104.87 155.62   Z" id="svg_22" class="" stroke="#000000" stroke-opacity="1" fill-opacity="1"/></g></svg>